<svg id="Layer_2" data-name="Layer 2" xmlns="http://www.w3.org/2000/svg" viewBox="0 0 1237.32 986.25"><title>1</title><path d="M143,1025s12-499.5,346.5-775.5c0,0-152.25,198,42,570C531.5,819.5,286,774.5,143,1025Z" transform="translate(-143 -189.75)"/><path d="M1380.32,360S932,99,542,223.33c0,0,256.34-4.33,451,339.67C993,563,1073.67,336.33,1380.32,360Z" transform="translate(-143 -189.75)"/><path d="M506,233S383,463,557,799c0,0,131.81-249.5,404.15-222.5C961.15,576.5,753.5,207.5,506,233Z" transform="translate(-143 -189.75)"/><path d="M717,677l51-28,213.47,379.72q2.71,4.85,5.29,9.76C994.83,1054,1029.5,1116,1068,1116c44,0,59-29,59-62s-49-127-49-127l43-28s67,90,67,171-70,106-111,106c-34.17,0-68.33-10.42-108.29-57.87a307.56,307.56,0,0,1-33.27-48.51Z" transform="translate(-143 -189.75)"/></svg>